<svg xmlns="http://www.w3.org/2000/svg" width="1200" height="660" viewBox="0 0 1200 660">
  <defs>
    <linearGradient id="img1" x1="0" y1="0" x2="1" y2="1"><stop offset="0%" stop-color="#dbeafe"/><stop offset="100%" stop-color="#bfdbfe"/></linearGradient>
    <linearGradient id="img2" x1="0" y1="0" x2="1" y2="1"><stop offset="0%" stop-color="#ede9fe"/><stop offset="100%" stop-color="#ddd6fe"/></linearGradient>
    <linearGradient id="img3" x1="0" y1="0" x2="1" y2="1"><stop offset="0%" stop-color="#dcfce7"/><stop offset="100%" stop-color="#bbf7d0"/></linearGradient>
  </defs>
  <rect width="1200" height="660" rx="24" fill="#ffffff"/>
  <text x="600" y="58" text-anchor="middle" font-family="Inter,Arial" font-size="32" font-weight="800" fill="#0f172a">Visual Reconstruction Showcase</text>
  <text x="600" y="92" text-anchor="middle" font-family="Inter,Arial" font-size="18" fill="#64748b">Replace these placeholder panels with real reconstruction grids from your paper</text>
  <text x="145" y="150" font-family="Inter,Arial" font-size="22" font-weight="800" fill="#0f172a">Original</text>
  <text x="145" y="330" font-family="Inter,Arial" font-size="22" font-weight="800" fill="#0f172a">Substitution</text>
  <text x="145" y="510" font-family="Inter,Arial" font-size="22" font-weight="800" fill="#0f172a">After Adaptation</text>
  <g>
    <rect x="310" y="120" width="120" height="120" rx="20" fill="url(#img1)"/><rect x="450" y="120" width="120" height="120" rx="20" fill="url(#img1)"/><rect x="590" y="120" width="120" height="120" rx="20" fill="url(#img1)"/><rect x="730" y="120" width="120" height="120" rx="20" fill="url(#img1)"/><rect x="870" y="120" width="120" height="120" rx="20" fill="url(#img1)"/>
    <rect x="310" y="300" width="120" height="120" rx="20" fill="url(#img2)" opacity="0.75"/><rect x="450" y="300" width="120" height="120" rx="20" fill="url(#img2)" opacity="0.75"/><rect x="590" y="300" width="120" height="120" rx="20" fill="url(#img2)" opacity="0.75"/><rect x="730" y="300" width="120" height="120" rx="20" fill="url(#img2)" opacity="0.75"/><rect x="870" y="300" width="120" height="120" rx="20" fill="url(#img2)" opacity="0.75"/>
    <rect x="310" y="480" width="120" height="120" rx="20" fill="url(#img3)"/><rect x="450" y="480" width="120" height="120" rx="20" fill="url(#img3)"/><rect x="590" y="480" width="120" height="120" rx="20" fill="url(#img3)"/><rect x="730" y="480" width="120" height="120" rx="20" fill="url(#img3)"/><rect x="870" y="480" width="120" height="120" rx="20" fill="url(#img3)"/>
  </g>
</svg>